<mxfile host="app.diagrams.net" modified="2021-02-14T09:55:11.159Z" agent="5.0 (X11)" etag="xn8co78o78XTWrByyB0W" version="14.3.1" type="github">
  <diagram id="R2lEEEUBdFMjLlhIrx00" name="Page-1">
    <mxGraphModel dx="1030" dy="624" grid="1" gridSize="10" guides="1" tooltips="1" connect="1" arrows="1" fold="1" page="1" pageScale="1" pageWidth="1700" pageHeight="1100" math="0" shadow="0" extFonts="Permanent Marker^https://fonts.googleapis.com/css?family=Permanent+Marker">
      <root>
        <mxCell id="0" />
        <mxCell id="1" parent="0" />
        <mxCell id="o2bkA1gatLqntWUun0Q7-15" value="STUDENT" style="rounded=0;whiteSpace=wrap;html=1;fillColor=#f8cecc;strokeColor=#b85450;" vertex="1" parent="1">
          <mxGeometry x="350" y="250" width="120" height="60" as="geometry" />
        </mxCell>
        <mxCell id="o2bkA1gatLqntWUun0Q7-16" value="OFFICE" style="rounded=0;whiteSpace=wrap;html=1;fillColor=#f8cecc;strokeColor=#b85450;" vertex="1" parent="1">
          <mxGeometry x="860" y="680" width="120" height="60" as="geometry" />
        </mxCell>
        <mxCell id="o2bkA1gatLqntWUun0Q7-17" value="DOCUMENT" style="rounded=0;whiteSpace=wrap;html=1;fillColor=#f8cecc;strokeColor=#b85450;" vertex="1" parent="1">
          <mxGeometry x="160" y="690" width="120" height="60" as="geometry" />
        </mxCell>
        <mxCell id="o2bkA1gatLqntWUun0Q7-18" value="STAFF" style="rounded=0;whiteSpace=wrap;html=1;fillColor=#f8cecc;strokeColor=#b85450;" vertex="1" parent="1">
          <mxGeometry x="850" y="250" width="120" height="60" as="geometry" />
        </mxCell>
        <mxCell id="o2bkA1gatLqntWUun0Q7-19" value="has" style="rhombus;whiteSpace=wrap;html=1;direction=south;" vertex="1" parent="1">
          <mxGeometry x="870" y="460" width="80" height="80" as="geometry" />
        </mxCell>
        <mxCell id="o2bkA1gatLqntWUun0Q7-20" value="control" style="rhombus;whiteSpace=wrap;html=1;direction=south;" vertex="1" parent="1">
          <mxGeometry x="680" y="360" width="80" height="80" as="geometry" />
        </mxCell>
        <mxCell id="o2bkA1gatLqntWUun0Q7-21" value="creates" style="rhombus;whiteSpace=wrap;html=1;direction=south;" vertex="1" parent="1">
          <mxGeometry x="230" y="430" width="80" height="80" as="geometry" />
        </mxCell>
        <mxCell id="o2bkA1gatLqntWUun0Q7-22" value="course" style="ellipse;whiteSpace=wrap;html=1;" vertex="1" parent="1">
          <mxGeometry x="180" y="110" width="120" height="50" as="geometry" />
        </mxCell>
        <mxCell id="o2bkA1gatLqntWUun0Q7-26" value="" style="endArrow=none;html=1;exitX=0;exitY=0;exitDx=0;exitDy=0;entryX=0.5;entryY=1;entryDx=0;entryDy=0;" edge="1" parent="1" source="o2bkA1gatLqntWUun0Q7-20">
          <mxGeometry width="50" height="50" relative="1" as="geometry">
            <mxPoint x="700" y="279.5" as="sourcePoint" />
            <mxPoint x="850" y="279.5" as="targetPoint" />
          </mxGeometry>
        </mxCell>
        <mxCell id="o2bkA1gatLqntWUun0Q7-27" value="password" style="ellipse;whiteSpace=wrap;html=1;" vertex="1" parent="1">
          <mxGeometry x="390" y="80" width="120" height="50" as="geometry" />
        </mxCell>
        <mxCell id="o2bkA1gatLqntWUun0Q7-28" value="year_of_study" style="ellipse;whiteSpace=wrap;html=1;" vertex="1" parent="1">
          <mxGeometry x="260" y="50" width="120" height="50" as="geometry" />
        </mxCell>
        <mxCell id="o2bkA1gatLqntWUun0Q7-29" value="student_number" style="ellipse;whiteSpace=wrap;html=1;" vertex="1" parent="1">
          <mxGeometry x="110" y="230" width="120" height="50" as="geometry" />
        </mxCell>
        <mxCell id="o2bkA1gatLqntWUun0Q7-30" value="student_name" style="ellipse;whiteSpace=wrap;html=1;" vertex="1" parent="1">
          <mxGeometry x="70" y="160" width="120" height="50" as="geometry" />
        </mxCell>
        <mxCell id="o2bkA1gatLqntWUun0Q7-31" value="" style="endArrow=none;html=1;exitX=0;exitY=0.5;exitDx=0;exitDy=0;" edge="1" parent="1" source="o2bkA1gatLqntWUun0Q7-21">
          <mxGeometry width="50" height="50" relative="1" as="geometry">
            <mxPoint x="460" y="470" as="sourcePoint" />
            <mxPoint x="410" y="310" as="targetPoint" />
          </mxGeometry>
        </mxCell>
        <mxCell id="o2bkA1gatLqntWUun0Q7-32" value="" style="endArrow=none;html=1;exitX=1;exitY=0.5;exitDx=0;exitDy=0;entryX=0.5;entryY=0;entryDx=0;entryDy=0;" edge="1" parent="1" source="o2bkA1gatLqntWUun0Q7-21" target="o2bkA1gatLqntWUun0Q7-17">
          <mxGeometry width="50" height="50" relative="1" as="geometry">
            <mxPoint x="250" y="520" as="sourcePoint" />
            <mxPoint x="200" y="650" as="targetPoint" />
          </mxGeometry>
        </mxCell>
        <mxCell id="o2bkA1gatLqntWUun0Q7-35" value="" style="endArrow=none;html=1;entryX=0.45;entryY=1.033;entryDx=0;entryDy=0;entryPerimeter=0;exitX=0.425;exitY=0.033;exitDx=0;exitDy=0;exitPerimeter=0;" edge="1" parent="1" source="o2bkA1gatLqntWUun0Q7-16">
          <mxGeometry width="50" height="50" relative="1" as="geometry">
            <mxPoint x="912" y="670" as="sourcePoint" />
            <mxPoint x="911.6" y="540" as="targetPoint" />
          </mxGeometry>
        </mxCell>
        <mxCell id="o2bkA1gatLqntWUun0Q7-36" value="" style="endArrow=none;html=1;" edge="1" parent="1">
          <mxGeometry width="50" height="50" relative="1" as="geometry">
            <mxPoint x="912" y="460" as="sourcePoint" />
            <mxPoint x="912" y="310" as="targetPoint" />
          </mxGeometry>
        </mxCell>
        <mxCell id="o2bkA1gatLqntWUun0Q7-38" value="DOC MOVEMENT" style="rounded=0;whiteSpace=wrap;html=1;fillColor=#f8cecc;strokeColor=#b85450;" vertex="1" parent="1">
          <mxGeometry x="530" y="500" width="120" height="60" as="geometry" />
        </mxCell>
        <mxCell id="o2bkA1gatLqntWUun0Q7-40" value="staff_name" style="ellipse;whiteSpace=wrap;html=1;" vertex="1" parent="1">
          <mxGeometry x="840" y="40" width="120" height="50" as="geometry" />
        </mxCell>
        <mxCell id="o2bkA1gatLqntWUun0Q7-41" value="office_ID" style="ellipse;whiteSpace=wrap;html=1;" vertex="1" parent="1">
          <mxGeometry x="1050" y="660" width="120" height="50" as="geometry" />
        </mxCell>
        <mxCell id="o2bkA1gatLqntWUun0Q7-42" value="staff_number" style="ellipse;whiteSpace=wrap;html=1;" vertex="1" parent="1">
          <mxGeometry x="790" y="110" width="120" height="50" as="geometry" />
        </mxCell>
        <mxCell id="o2bkA1gatLqntWUun0Q7-43" value="password" style="ellipse;whiteSpace=wrap;html=1;" vertex="1" parent="1">
          <mxGeometry x="1040" y="140" width="120" height="50" as="geometry" />
        </mxCell>
        <mxCell id="o2bkA1gatLqntWUun0Q7-44" value="staff_position" style="ellipse;whiteSpace=wrap;html=1;" vertex="1" parent="1">
          <mxGeometry x="990" y="60" width="120" height="50" as="geometry" />
        </mxCell>
        <mxCell id="o2bkA1gatLqntWUun0Q7-45" value="level" style="ellipse;whiteSpace=wrap;html=1;" vertex="1" parent="1">
          <mxGeometry x="1000" y="820" width="120" height="50" as="geometry" />
        </mxCell>
        <mxCell id="o2bkA1gatLqntWUun0Q7-46" value="college" style="ellipse;whiteSpace=wrap;html=1;" vertex="1" parent="1">
          <mxGeometry x="840" y="800" width="120" height="50" as="geometry" />
        </mxCell>
        <mxCell id="o2bkA1gatLqntWUun0Q7-47" value="office_name" style="ellipse;whiteSpace=wrap;html=1;" vertex="1" parent="1">
          <mxGeometry x="1070" y="740" width="120" height="50" as="geometry" />
        </mxCell>
        <mxCell id="o2bkA1gatLqntWUun0Q7-48" value="date_created" style="ellipse;whiteSpace=wrap;html=1;" vertex="1" parent="1">
          <mxGeometry x="130" y="910" width="120" height="50" as="geometry" />
        </mxCell>
        <mxCell id="o2bkA1gatLqntWUun0Q7-49" value="document-destination" style="ellipse;whiteSpace=wrap;html=1;" vertex="1" parent="1">
          <mxGeometry x="220" y="840" width="120" height="50" as="geometry" />
        </mxCell>
        <mxCell id="o2bkA1gatLqntWUun0Q7-50" value="description" style="ellipse;whiteSpace=wrap;html=1;" vertex="1" parent="1">
          <mxGeometry x="30" y="860" width="120" height="50" as="geometry" />
        </mxCell>
        <mxCell id="o2bkA1gatLqntWUun0Q7-51" value="document_name" style="ellipse;whiteSpace=wrap;html=1;" vertex="1" parent="1">
          <mxGeometry y="770" width="120" height="50" as="geometry" />
        </mxCell>
        <mxCell id="o2bkA1gatLqntWUun0Q7-52" value="document_ID" style="ellipse;whiteSpace=wrap;html=1;" vertex="1" parent="1">
          <mxGeometry y="695" width="120" height="50" as="geometry" />
        </mxCell>
        <mxCell id="o2bkA1gatLqntWUun0Q7-54" value="control" style="rhombus;whiteSpace=wrap;html=1;direction=south;rotation=50;" vertex="1" parent="1">
          <mxGeometry x="390" y="580" width="80" height="80" as="geometry" />
        </mxCell>
        <mxCell id="o2bkA1gatLqntWUun0Q7-55" value="" style="endArrow=none;html=1;exitX=0.5;exitY=0;exitDx=0;exitDy=0;" edge="1" parent="1" source="o2bkA1gatLqntWUun0Q7-38" target="o2bkA1gatLqntWUun0Q7-20">
          <mxGeometry width="50" height="50" relative="1" as="geometry">
            <mxPoint x="590" y="520.5" as="sourcePoint" />
            <mxPoint x="720" y="440" as="targetPoint" />
          </mxGeometry>
        </mxCell>
        <mxCell id="o2bkA1gatLqntWUun0Q7-56" value="" style="endArrow=none;html=1;exitX=0;exitY=0.5;exitDx=0;exitDy=0;entryX=0;entryY=0.5;entryDx=0;entryDy=0;" edge="1" parent="1" source="o2bkA1gatLqntWUun0Q7-54" target="o2bkA1gatLqntWUun0Q7-38">
          <mxGeometry width="50" height="50" relative="1" as="geometry">
            <mxPoint x="460" y="620" as="sourcePoint" />
            <mxPoint x="590" y="560" as="targetPoint" />
          </mxGeometry>
        </mxCell>
        <mxCell id="o2bkA1gatLqntWUun0Q7-57" value="" style="endArrow=none;html=1;exitX=0.5;exitY=0;exitDx=0;exitDy=0;entryX=1;entryY=0.5;entryDx=0;entryDy=0;" edge="1" parent="1" target="o2bkA1gatLqntWUun0Q7-54">
          <mxGeometry width="50" height="50" relative="1" as="geometry">
            <mxPoint x="280" y="720" as="sourcePoint" />
            <mxPoint x="410" y="660" as="targetPoint" />
          </mxGeometry>
        </mxCell>
        <mxCell id="o2bkA1gatLqntWUun0Q7-58" value="document_destination" style="ellipse;whiteSpace=wrap;html=1;" vertex="1" parent="1">
          <mxGeometry x="530" y="630" width="120" height="50" as="geometry" />
        </mxCell>
        <mxCell id="o2bkA1gatLqntWUun0Q7-59" value="commnets" style="ellipse;whiteSpace=wrap;html=1;" vertex="1" parent="1">
          <mxGeometry x="640" y="580" width="120" height="50" as="geometry" />
        </mxCell>
        <mxCell id="o2bkA1gatLqntWUun0Q7-60" value="date_received" style="ellipse;whiteSpace=wrap;html=1;" vertex="1" parent="1">
          <mxGeometry x="540" y="370" width="120" height="50" as="geometry" />
        </mxCell>
        <mxCell id="o2bkA1gatLqntWUun0Q7-61" value="date_approved" style="ellipse;whiteSpace=wrap;html=1;" vertex="1" parent="1">
          <mxGeometry x="680" y="460" width="120" height="50" as="geometry" />
        </mxCell>
        <mxCell id="o2bkA1gatLqntWUun0Q7-62" value="document_id" style="ellipse;whiteSpace=wrap;html=1;" vertex="1" parent="1">
          <mxGeometry x="420" y="400" width="120" height="50" as="geometry" />
        </mxCell>
        <mxCell id="o2bkA1gatLqntWUun0Q7-63" value="" style="endArrow=none;html=1;exitX=0;exitY=0;exitDx=0;exitDy=0;entryX=0.5;entryY=1;entryDx=0;entryDy=0;" edge="1" parent="1" target="o2bkA1gatLqntWUun0Q7-27">
          <mxGeometry width="50" height="50" relative="1" as="geometry">
            <mxPoint x="410" y="250" as="sourcePoint" />
            <mxPoint x="520" y="149.5" as="targetPoint" />
          </mxGeometry>
        </mxCell>
        <mxCell id="o2bkA1gatLqntWUun0Q7-64" value="" style="endArrow=none;html=1;exitX=0.45;exitY=0;exitDx=0;exitDy=0;entryX=0.5;entryY=1;entryDx=0;entryDy=0;exitPerimeter=0;" edge="1" parent="1" source="o2bkA1gatLqntWUun0Q7-15" target="o2bkA1gatLqntWUun0Q7-28">
          <mxGeometry width="50" height="50" relative="1" as="geometry">
            <mxPoint x="290" y="220" as="sourcePoint" />
            <mxPoint x="330" y="100" as="targetPoint" />
          </mxGeometry>
        </mxCell>
        <mxCell id="o2bkA1gatLqntWUun0Q7-65" value="" style="endArrow=none;html=1;exitX=0;exitY=0.25;exitDx=0;exitDy=0;entryX=0.667;entryY=0.96;entryDx=0;entryDy=0;entryPerimeter=0;" edge="1" parent="1" source="o2bkA1gatLqntWUun0Q7-15" target="o2bkA1gatLqntWUun0Q7-22">
          <mxGeometry width="50" height="50" relative="1" as="geometry">
            <mxPoint x="280" y="270" as="sourcePoint" />
            <mxPoint x="320" y="150" as="targetPoint" />
          </mxGeometry>
        </mxCell>
        <mxCell id="o2bkA1gatLqntWUun0Q7-66" value="" style="endArrow=none;html=1;exitX=0;exitY=0.25;exitDx=0;exitDy=0;entryX=0.967;entryY=0.68;entryDx=0;entryDy=0;entryPerimeter=0;" edge="1" parent="1" source="o2bkA1gatLqntWUun0Q7-15" target="o2bkA1gatLqntWUun0Q7-30">
          <mxGeometry width="50" height="50" relative="1" as="geometry">
            <mxPoint x="230" y="315" as="sourcePoint" />
            <mxPoint x="270" y="195" as="targetPoint" />
          </mxGeometry>
        </mxCell>
        <mxCell id="o2bkA1gatLqntWUun0Q7-67" value="" style="endArrow=none;html=1;exitX=1;exitY=0.5;exitDx=0;exitDy=0;entryX=0;entryY=0.25;entryDx=0;entryDy=0;" edge="1" parent="1" source="o2bkA1gatLqntWUun0Q7-29" target="o2bkA1gatLqntWUun0Q7-15">
          <mxGeometry width="50" height="50" relative="1" as="geometry">
            <mxPoint x="290" y="390" as="sourcePoint" />
            <mxPoint x="330" y="270" as="targetPoint" />
          </mxGeometry>
        </mxCell>
        <mxCell id="o2bkA1gatLqntWUun0Q7-69" value="" style="endArrow=none;html=1;exitX=0;exitY=0;exitDx=0;exitDy=0;entryX=0.3;entryY=0.98;entryDx=0;entryDy=0;entryPerimeter=0;" edge="1" parent="1" target="o2bkA1gatLqntWUun0Q7-44">
          <mxGeometry width="50" height="50" relative="1" as="geometry">
            <mxPoint x="920" y="250" as="sourcePoint" />
            <mxPoint x="1030" y="100" as="targetPoint" />
          </mxGeometry>
        </mxCell>
        <mxCell id="o2bkA1gatLqntWUun0Q7-70" value="" style="endArrow=none;html=1;exitX=0;exitY=0;exitDx=0;exitDy=0;entryX=0.675;entryY=1.06;entryDx=0;entryDy=0;entryPerimeter=0;" edge="1" parent="1" target="o2bkA1gatLqntWUun0Q7-40">
          <mxGeometry width="50" height="50" relative="1" as="geometry">
            <mxPoint x="920" y="250" as="sourcePoint" />
            <mxPoint x="960" y="130" as="targetPoint" />
          </mxGeometry>
        </mxCell>
        <mxCell id="o2bkA1gatLqntWUun0Q7-71" value="" style="endArrow=none;html=1;exitX=0.583;exitY=0;exitDx=0;exitDy=0;entryX=0.5;entryY=1;entryDx=0;entryDy=0;exitPerimeter=0;" edge="1" parent="1" source="o2bkA1gatLqntWUun0Q7-18">
          <mxGeometry width="50" height="50" relative="1" as="geometry">
            <mxPoint x="810" y="280" as="sourcePoint" />
            <mxPoint x="850" y="160" as="targetPoint" />
          </mxGeometry>
        </mxCell>
        <mxCell id="o2bkA1gatLqntWUun0Q7-73" value="" style="endArrow=none;html=1;exitX=0.633;exitY=-0.017;exitDx=0;exitDy=0;entryX=0;entryY=1;entryDx=0;entryDy=0;exitPerimeter=0;" edge="1" parent="1" source="o2bkA1gatLqntWUun0Q7-18" target="o2bkA1gatLqntWUun0Q7-43">
          <mxGeometry width="50" height="50" relative="1" as="geometry">
            <mxPoint x="930" y="260" as="sourcePoint" />
            <mxPoint x="1036" y="119" as="targetPoint" />
          </mxGeometry>
        </mxCell>
        <mxCell id="o2bkA1gatLqntWUun0Q7-74" value="" style="endArrow=none;html=1;" edge="1" parent="1">
          <mxGeometry width="50" height="50" relative="1" as="geometry">
            <mxPoint x="560" y="500" as="sourcePoint" />
            <mxPoint x="501" y="451" as="targetPoint" />
          </mxGeometry>
        </mxCell>
        <mxCell id="o2bkA1gatLqntWUun0Q7-75" value="" style="endArrow=none;html=1;exitX=0.25;exitY=0;exitDx=0;exitDy=0;" edge="1" parent="1" source="o2bkA1gatLqntWUun0Q7-38">
          <mxGeometry width="50" height="50" relative="1" as="geometry">
            <mxPoint x="570" y="510" as="sourcePoint" />
            <mxPoint x="590" y="420" as="targetPoint" />
          </mxGeometry>
        </mxCell>
        <mxCell id="o2bkA1gatLqntWUun0Q7-76" value="" style="endArrow=none;html=1;exitX=1;exitY=0.5;exitDx=0;exitDy=0;" edge="1" parent="1" source="o2bkA1gatLqntWUun0Q7-38" target="o2bkA1gatLqntWUun0Q7-61">
          <mxGeometry width="50" height="50" relative="1" as="geometry">
            <mxPoint x="650" y="540" as="sourcePoint" />
            <mxPoint x="680" y="460" as="targetPoint" />
          </mxGeometry>
        </mxCell>
        <mxCell id="o2bkA1gatLqntWUun0Q7-77" value="" style="endArrow=none;html=1;exitX=0.417;exitY=0;exitDx=0;exitDy=0;exitPerimeter=0;" edge="1" parent="1" source="o2bkA1gatLqntWUun0Q7-58">
          <mxGeometry width="50" height="50" relative="1" as="geometry">
            <mxPoint x="570" y="640" as="sourcePoint" />
            <mxPoint x="600" y="560" as="targetPoint" />
          </mxGeometry>
        </mxCell>
      </root>
    </mxGraphModel>
  </diagram>
</mxfile>
